<svg xmlns="http://www.w3.org/2000/svg" viewBox="115.50335693359375 68.07609358955153 343.9932861328125 391.85890587639085"> <svg xmlns="http://www.w3.org/2000/svg" xmlns:xlink="http://www.w3.org/1999/xlink" version="1.1" id="Layer_1" x="185.50335693359375" y="138.07609358955153" viewBox="191.0888671875 201.2000274658203 213.1845703125 192.90000915527344" xml:space="preserve" height="184.58328064750904" width="203.9932861328125" preserveAspectRatio="xMinYMin" enable-background="new 0 0 595.3 595.3" style="overflow: visible;"><path class="st0" d="M360.5,336.1c0.3-0.2,0.6-0.5,0.7-0.7c0.2-0.2,0.3-0.3,0.3-0.3s-5.9,0.2-9.8-3.7c-4.1-5.4-1.7-8.9-1.7-8.9   s-0.1,0-0.4,0.1c-0.2,0.1-0.6,0.1-1,0.3c-0.8,0.3-1.9,0.9-2.8,2c-0.5,0.5-1,1.2-1.3,2.1c-0.4,0.8-0.6,1.9-0.6,3.1   c0,1.2,0.3,2.5,1,3.8c0.7,1.2,1.6,2.2,2.6,3c1,0.7,2,1.2,3,1.5c1,0.3,1.9,0.4,2.8,0.4c0.9,0,1.7-0.1,2.4-0.2c0.8-0.1,1.4-0.4,2-0.6   c0.6-0.3,1.1-0.6,1.6-0.9C359.8,336.7,360.2,336.3,360.5,336.1z M320,308.4c-0.3,0.1-0.6,0.1-0.9,0.1c-0.7,0-1.3,0-2-0.1   c-0.3,0-0.7-0.1-1.1-0.2c-0.4-0.1-0.8-0.2-1.1-0.2c-0.4-0.1-0.8-0.2-1.2-0.3c-0.3-0.1-0.6-0.1-1.3-0.4l-0.8-0.3l0,0l-0.1,0   l-0.3-0.1c-0.4-0.1-0.8-0.3-1.2-0.5c-0.4-0.2-0.8-0.3-1.1-0.5c-0.4-0.2-0.8-0.4-1.1-0.6c-1.5-0.8-3-1.9-4.3-2.9   c-1.3-1-2.5-2-3.4-2.7c-0.9-0.7-1.4-1.2-1.4-1.2s-0.2,0.7-0.3,1.9c0,0.6,0,1.3,0,2.1c0.1,0.8,0.2,1.7,0.5,2.7c0.3,1,0.7,2,1.2,3.1   c0.6,1.1,1.3,2.2,2.2,3.2c0.4,0.5,0.9,1,1.5,1.5l0.8,0.7l0.9,0.6c0.6,0.4,1.3,0.8,2,1.1l0.5,0.2l0.3,0.1l0.1,0l0.2,0.1l0.1,0   l0.8,0.3c0.5,0.2,1.3,0.4,2.1,0.6c0.8,0.2,1.5,0.2,2.3,0.3c1.5,0.1,3.1,0,4.5-0.4c1.5-0.3,2.9-1.1,4.1-1.9c1.2-0.9,2.1-1.9,2.7-3.1   c0.3-0.5,0.5-1.1,0.7-1.6c0.1-0.5,0.2-1,0.3-1.5c0.1-0.9,0-1.7-0.2-2.3c-0.1-0.6-0.4-1.1-0.5-1.3c-0.1-0.3-0.2-0.4-0.2-0.4   s-0.1,0.1-0.3,0.4c-0.2,0.3-0.4,0.6-0.8,1c-0.3,0.4-0.8,0.8-1.3,1.2c-0.5,0.4-1.1,0.7-1.7,0.9c-0.2,0-0.3,0.1-0.4,0.2   S320.2,308.4,320,308.4z M329.4,370.4c-1.4,0.4-3.5,1.1-4.7,1.8c-3,1.6-9.6,3.7-19.5-1c-6.5-3.1-9.3-7-10.6-9.7   c-1.1-2.3-2.3-4.5-4-6.4c-2.8-3.1-6.2-9.3-3.6-20.3c1.3-5.8,1.3-11.8-0.6-17.4c-0.4-1.3-0.8-2.7-0.9-4.1c-0.4-3.7,1.5-8.8,3.8-11.7   c3.3-4.2,6.2-10.8,9.6-19.2c1.9-4.5,3.6-8.8,5.1-11.2c2.8-4.4,9-7.7,13.5-9.4c2.1-0.8,3.2-3.1,2.7-5.3l-0.2-0.6   c-0.7-2.6-3.5-4-5.9-3c-5.3,2.1-13.8,6.2-18.2,13.2c-1.9,3-3.8,7.6-5.8,12.6c-0.8,1.9-2.6,5.4-4.5,8.9c-2,3.7-7.6,3.2-8.9-0.8   c-0.7-2.1-1.2-4.2-1.5-6.2c-1.9-12.7-0.7-25,3-29.2c11-12.6,29.2-9.8,39-7c4.3,1.2,8.7,2.3,13.1,2.7c26.7,2.4,41.6,20.5,47.9,30.7   c2.4,3.9,5.3,7.5,8.6,10.8c4.3,4.3,9.7,12.5,7.5,25c-0.9,5.4-3.3,9.4-6.3,12.3c-1.2,1.2-3-0.4-2.1-1.8c0.8-1.3,1.6-2.6,2.3-3.9   c1.1-1.9,0.8-4.4-0.8-5.9c-2.3-2.2-6.3-1.6-7.5,1.2c-4.9,11.2-9.6,16.2-12.4,18.3c-1.9,1.4-3.5,3.3-4.8,5.3   c-2.7,4.6-8.1,11.9-16.1,14.2c-1.1,0.3-2,1.2-2.3,2.3C341.1,365.9,333.6,369.3,329.4,370.4z M311.8,370.5c3.3,2,8.6,2.5,13.2-1.1   c4.6-3.6,1.1-7.8-3.8-9.6c-4.9-1.9-8.5-8.6-13-4.1C303.8,360.2,308,368.1,311.8,370.5z" style="fill: #FFFFFF;"></path><path class="st1" d="M294.4,322.1c1.8,3.8,2.6,10.9-0.4,16.1c-3.1,5.2-0.8,15.5,3.6,17.7c4.4,2.2,12.1-1.4,12.1-1.4l4.8,10.9   l12.6,0.3c0,0,0.2,5.6-4.9,9.8c-5.1,4.2-18.7,0-18.7,0l-14.5-14.3l-8-13.7l3.4-23.9l-1.7-9.1l12,4.2L294.4,322.1z" style="fill: #E6E7E8;"></path><path class="st2" d="M284.3,305.7c0,0-7.2,19.5,23.6,16.9c30.8-2.5,33.7-29.8,36-36.7c2.3-7,17.2-8.9,17.6,3.2   c0.4,12.1,13.5-0.8,19.1,6.3c5.6,7.1-9.8,21.7-27.4,24.3c-17.6,2.7-15.5,17.5-14,21c1.5,3.5,6.3,9.1,5.1,14.8l17.3-3l16.1-18.1   l21.3-10.5v-27.2l-15.5-18.9l-21.9-26.6l-29.8-7.8l-34.1-5.7l-21.8,10.6l-6.6,20.3l4.9,21.1l7,11.3L284.3,305.7z" style="fill: #BA7F49;"></path><path class="st2" d="M265.6,211.3c0,0,4.6,1.3,3,11.2c-1.6,9.8-3.7,9.4-6.6,18.3c-2.8,8.9-2.5,13.6-9.4,17.6c-6.9,4-8.3,4-17.4,5.7   c-9.1,1.6-19.8,3.1-24.4-0.4c-4.6-3.6-6.4-7.8-2.4-13.6c4-5.8,32.2-31.6,32.2-31.6L265.6,211.3z" style="fill: #BA7F49;"></path><path class="st2" d="M201.5,297.6c0,0,27.9,2.7,40,7.9c12.1,5.2,20.9,14.5,24.2,21.2c3.3,6.7,2.3,9.1-4.7,13.9   c-7,4.8-12.4,3.9-19.4,4.3c-7,0.4-19.7,0.7-23.5,2.5c-3.9,1.8-8.6,0-8.6,0s-12.1-26.2-13.1-31.6   C195.1,310.5,201.5,297.6,201.5,297.6z" style="fill: #BA7F49;"></path><path class="st0" d="M346.7,234c-15.8-14.7-36.8-23.2-59.2-23.2c-2.3,0-4.7,0.1-7,0.3c-4,0.3-6.8,4.1-5.9,8   c1.6,7,0.2,15.4-5.5,21.8c-2.1,2.4-3.9,6.3-5.3,10.6c-0.1,0.3-0.2,0.6-0.3,0.9c-3.2,10.1-12.9,16.4-23.5,15.7   c-1.9-0.1-3.9,0-5.9,0.4c-5.5,1.2-13.4,2.4-20.2,1.8c-5.3-0.5-10,3.2-11.2,8.4c-0.5,2.1-0.8,4.1-1.2,6.2c-0.7,4.4,2.8,8.3,7.3,8.2   c10.8-0.4,26.1,1.2,40.1,10c10.4,6.5,16.8,15.4,20.7,24.2c5.7,12.8-5.6,26.5-19.4,24c-3.2-0.6-6.5-1-9.9-1.2   c-6.3-0.4-11.2,0.6-15.5,1.5l-0.1,0c-2.1,0.4-3,3.1-1.6,4.7c15.9,17.5,38.9,28.6,64.3,28.6c5,0,9.9-0.4,14.6-1.2   c2.3-0.4,2.7-3.6,0.5-4.5l-0.1,0c-11-4.3-15.4-10.6-17.1-14.6c-0.5-1.2-1.2-2.3-2-3.4c-6.3-8-6.1-19.4-4.9-27.4   c0.8-5.5,0.5-11.2-0.6-16.7c-0.3-1.3-0.5-2.6-0.7-3.8c-0.8-4.3-2.2-8.5-4.6-12.2c-2.5-4.1-5.7-10.6-7-18.7   c-1.4-9.5-1.5-20.9,1.3-29.4c1-2.9,2.2-5.5,3.9-7.5c14.3-17.5,37.9-13.2,48.9-10c3.7,1.1,7.5,1.8,11.3,2.1   c3.2,0.2,7.7,0.8,12.6,2.2C346.8,240.2,349.1,236.2,346.7,234z" style="fill: #FFFFFF;"></path><path class="st1" d="M229.3,294.8c-9.1-1.6-18-6.1-16.1-14c1.9-7.9,10.8-10.5,17.5-11.7l-13.6-3.6l-11.9,3.1l-9.8,12.7l4.1,11.6   l1.6,4.3l22.6,1.1L229.3,294.8z" style="fill: #E6E7E8;"></path><path class="st1" d="M297.6,371.3l-11.7-16.5l-4.6-9.8l0.5-3.6v-38l-12.5-18.1l2.6-36.2c0,0-14.5,15.3-15.3,30.4   c-0.8,15.1,15.7,28.9,15.9,42.4c0.2,10.3-3.2,28.4,5.4,46.5l0,0c0.7,1.9,1.5,3.7,2.8,5.6c6.8,10.5-39.1-9.2-39.2-16   c-0.1-6.9,17.5,2.2,26-13.5l-8.2,2.2l-29.1-1.8l-18.2,7.3l34.7,30l34.7,6.1l38.2-6.3L297.6,371.3z" style="fill: #E6E7E8;"></path><path class="st1" d="M328.4,242.4l-8.7-7.4c0,0,17.8,1.7,16.8-4c-1-5.8-38.1-11.6-48.2-10.3c-10.1,1.3-14.5,11.9-14.5,11.9   l-4.6-14.2l3.5-10.7l15.4-3.1l26.1,6.2l21.3,8.6L352,233l2.9,13.1l-15.8-1L328.4,242.4z" style="fill: #E6E7E8;"></path><path class="st3" d="M233.1,301.6c0,0-0.8,3.8-5.8,2.4c-5-1.4-15.8,13.3-9.7,25.1c6.1,11.8,14.5,11.3,14.5,11.3l-7.6,5.6    l-12.5,1.2l-12.6-23.4l2.1-22.3l10.9-4L233.1,301.6z" style="fill: #AA6633;"></path><path class="st3" d="M233.9,262.8c0,0-3-3.1-5.9-3.1s-0.5-19,16.4-29.1c16.9-10,22.1-5.7,19.4,1.1l3.9-5l2.1-17l-18.9,2.3    l-33.1,22.1l-11.7,28.2l10.8,3.5L233.9,262.8z" style="fill: #AA6633;"></path><path class="st3" d="M320.1,256.5c2.1,7.7-2.3,9-9.7,16.3c-7.4,7.4-14.9,16.4-11.8,25.8l12.9,18.3c0,0-7.8,1.8-15.6-0.8    c-7.8-2.7-1.5,5.9-1.5,5.9s-4.7-0.7-7.8-3.8c-3.1-3.2-5-11.3-5-11.3l12.5-25.4l10.8-19.9L320.1,256.5z" style="fill: #AA6633;"></path><path class="st3" d="M288.1,289.3l-5.7,0.7c0,0-5,1.6-3.7-17.5c1.3-19.2,12.9-30.9,29.6-30l-6.1-3.8l-18.4,2.3l-12.1,13.9    l-1.9,27.2l11.2,15.6L288.1,289.3z" style="fill: #AA6633;"></path><path class="st3" d="M386.1,313.4c5.3,2.5,7.2,9.7,3,15.5c-4.2,5.8-8.4-5.4-8.4-5.4L386.1,313.4z" style="fill: #AA6633;"></path><path class="st4" d="M360.5,336.1c-0.3,0.3-0.7,0.6-1.2,0.9c-0.5,0.3-1,0.6-1.6,0.9c-0.6,0.2-1.3,0.5-2,0.6    c-0.7,0.1-1.6,0.3-2.4,0.2c-0.9,0-1.8-0.1-2.8-0.4c-1-0.3-2-0.8-3-1.5c-1-0.7-1.9-1.7-2.6-3c-0.7-1.2-1-2.6-1-3.8    c0-1.2,0.3-2.2,0.6-3.1c0.4-0.8,0.8-1.5,1.3-2.1c1-1.1,2-1.7,2.8-2c0.4-0.2,0.8-0.3,1-0.3c0.2-0.1,0.4-0.1,0.4-0.1    s-2.3,3.5,1.7,8.9c3.9,3.9,9.8,3.7,9.8,3.7s-0.1,0.1-0.3,0.3C361.1,335.5,360.8,335.8,360.5,336.1z" style="fill: #414042;"></path><path class="st4" d="M321.2,359.7c4.9,1.9,8.4,6,3.8,9.6c-4.6,3.7-9.9,3.1-13.2,1.1c-3.8-2.3-8-10.3-3.6-14.8    C312.7,351.1,316.3,357.9,321.2,359.7z" style="fill: #414042;"></path><path class="st4" d="M325.8,306.5c0.2,0.6,0.3,1.4,0.2,2.3c-0.1,0.5-0.1,1-0.3,1.5c-0.2,0.5-0.4,1.1-0.7,1.6    c-0.6,1.1-1.5,2.1-2.7,3.1c-1.2,0.8-2.6,1.6-4.1,1.9c-1.5,0.4-3,0.5-4.5,0.4c-0.8-0.1-1.5-0.1-2.3-0.3c-0.8-0.2-1.6-0.4-2.1-0.6    l-0.8-0.3l-0.1,0l-0.2-0.1l-0.1,0l-0.3-0.1l-0.5-0.2c-0.7-0.3-1.3-0.7-2-1.1l-0.9-0.6l-0.8-0.7c-0.5-0.5-1-1-1.5-1.5    c-0.9-1-1.6-2.1-2.2-3.2c-0.6-1.1-1-2.1-1.2-3.1c-0.3-1-0.4-1.9-0.5-2.7c-0.1-0.8-0.1-1.5,0-2.1c0.1-1.2,0.3-1.9,0.3-1.9    s0.5,0.4,1.4,1.2c0.9,0.7,2.1,1.7,3.4,2.7c1.3,1,2.8,2,4.3,2.9c0.4,0.2,0.8,0.4,1.1,0.6c0.4,0.2,0.8,0.4,1.1,0.5    c0.4,0.2,0.8,0.3,1.2,0.5l0.3,0.1l0.1,0l0,0l0.8,0.3c0.6,0.3,0.9,0.3,1.3,0.4c0.3,0.1,0.8,0.2,1.2,0.3c0.4,0.1,0.8,0.2,1.1,0.2    c0.3,0,0.7,0.1,1.1,0.2c0.7,0.1,1.3,0.1,2,0.1c0.3,0,0.6,0,0.9-0.1c0.2,0,0.3,0,0.5-0.1s0.3-0.1,0.4-0.2c0.6-0.2,1.2-0.5,1.7-0.9    c0.5-0.4,0.9-0.8,1.3-1.2c0.4-0.4,0.6-0.8,0.8-1c0.2-0.3,0.3-0.4,0.3-0.4s0.1,0.1,0.2,0.4C325.4,305.4,325.7,305.9,325.8,306.5z" style="fill: #414042;"></path><path class="st4" d="M392.8,280.7c6.7,6,13.7,17.5,10.8,34.5c-3.3,18.7-19.5,26.2-31.1,28.2c-16.9,31.4-49.1,50.7-84.9,50.7    c-36.6,0-68.5-20.5-84.9-50.6c-0.9-1.6-1.8-3.4-2.8-5.4c-0.3-0.6-0.5-1.1-0.7-1.7c-4.2-9.5-6.9-19.8-7.8-30.6    c-0.4-3.8-0.3-6.1-0.3-6.3l0-0.6c0-0.4,0-0.8,0-1.2c0-15.2,3.5-29.5,9.8-42.3c0.5-1.3,1.2-2.8,2.3-4.4l0,0    c11.5-20.7,30.5-36.8,53.3-44.6l0,0c0.8-0.3,1.6-0.6,2.3-0.8c9.1-2.8,18.7-4.4,28.7-4.4c38.6,0,73.4,22.9,88.6,58.3    c3.3,3.4,6.4,7.4,9.3,12C387.5,274.8,389.9,278,392.8,280.7z M394.2,313.5c2.2-12.6-3.2-20.7-7.5-25c-3.3-3.3-6.2-6.9-8.6-10.8    c-6.4-10.2-21.3-28.3-47.9-30.7c-4.4-0.4-8.8-1.5-13.1-2.7c-9.8-2.8-27.9-5.6-39,7c-3.7,4.2-4.9,16.5-3,29.2    c0.3,2,0.9,4.2,1.5,6.2c1.3,4.1,6.9,4.5,8.9,0.8c1.9-3.4,3.7-7,4.5-8.9c2-4.9,3.9-9.6,5.8-12.6c4.4-7,12.8-11.2,18.2-13.2    c2.5-1,5.3,0.4,5.9,3l0.2,0.6c0.6,2.2-0.6,4.5-2.7,5.3c-4.5,1.7-10.7,4.9-13.5,9.4c-1.5,2.3-3.2,6.6-5.1,11.2    c-3.5,8.4-6.4,15-9.6,19.2c-2.3,2.9-4.2,8.1-3.8,11.7c0.1,1.4,0.5,2.7,0.9,4.1c1.8,5.6,1.9,11.7,0.6,17.4    c-2.6,11,0.8,17.3,3.6,20.3c1.7,1.9,3,4.1,4,6.4c1.3,2.7,4.1,6.6,10.6,9.7c9.9,4.7,16.5,2.6,19.5,1c1.2-0.7,3.4-1.4,4.7-1.8    c4.1-1.1,11.7-4.5,14.8-14.9c0.3-1.1,1.2-2,2.3-2.3c8-2.3,13.4-9.6,16.1-14.2c1.2-2.1,2.8-3.9,4.8-5.3c2.9-2.1,7.6-7.1,12.4-18.3    c1.2-2.8,5.2-3.4,7.5-1.2c1.6,1.5,1.8,4,0.8,5.9c-0.7,1.3-1.5,2.6-2.3,3.9c-0.9,1.4,1,2.9,2.1,1.8    C390.9,322.9,393.2,318.9,394.2,313.5z M343.6,239.3c3.2,0.9,5.4-3.1,3-5.3c-15.8-14.7-36.8-23.2-59.2-23.2c-2.3,0-4.7,0.1-7,0.3    c-4,0.3-6.8,4.1-5.9,8c1.6,7,0.2,15.4-5.5,21.8c-2.1,2.4-3.9,6.3-5.3,10.6c-0.1,0.3-0.2,0.6-0.3,0.9    c-3.2,10.1-12.9,16.4-23.5,15.7c-1.9-0.1-3.9,0-5.9,0.4c-5.5,1.2-13.4,2.4-20.2,1.8c-5.3-0.5-10,3.2-11.2,8.4    c-0.5,2.1-0.8,4.1-1.2,6.2c-0.7,4.4,2.8,8.3,7.3,8.2c10.8-0.4,26.1,1.2,40.1,10c10.4,6.5,16.8,15.4,20.7,24.2    c5.7,12.8-5.6,26.5-19.4,24c-3.2-0.6-6.5-1-9.9-1.2c-6.3-0.4-11.2,0.6-15.5,1.5l-0.1,0c-2.1,0.4-3,3.1-1.6,4.7    c15.9,17.5,38.9,28.6,64.3,28.6c5,0,9.9-0.4,14.6-1.2c2.3-0.4,2.7-3.6,0.5-4.5l-0.1,0c-11-4.3-15.4-10.6-17.1-14.6    c-0.5-1.2-1.2-2.3-2-3.4c-6.3-8-6.1-19.4-4.9-27.4c0.8-5.5,0.5-11.2-0.6-16.7c-0.3-1.3-0.5-2.6-0.7-3.8c-0.8-4.3-2.2-8.5-4.6-12.2    c-2.5-4.1-5.7-10.6-7-18.7c-1.4-9.5-1.5-20.9,1.3-29.4c1-2.9,2.2-5.5,3.9-7.5c14.3-17.5,37.9-13.2,48.9-10    c3.7,1.1,7.5,1.8,11.3,2.1C334.2,237.3,338.7,237.9,343.6,239.3z M262,234.4c5.2-5.8,4.1-14.1,1.4-17.8c0,0,0,0,0,0    c-0.9-1.2-2.4-1.6-3.8-1.2c-18.3,6.2-33.8,18.4-44.4,34.2c-3.1,4.6,0.3,10.8,5.8,10.7c3.2,0,7-0.4,11.2-1.3    c2.9-0.6,5.7-0.8,8.3-0.5c6.8,0.6,13-3.7,14.8-10.3C256.5,243,258.6,238.2,262,234.4z M249.7,341.4c7.8,1.6,13.9-6.8,9.9-13.7    c-4.2-7-9.5-12.7-15.8-16.8c-10.5-6.9-22.2-8.6-31.3-8.6c-6.5,0-11.4,6-10.1,12.5c1.1,5.4,2.8,11.9,5.7,18c1,2.1,1.9,4.2,3,6.2    c1.2,2,2.4,3.2,3.6,3.6c1.8,0.7,4.6,0.1,8.3-0.6c4-0.8,8.7-1.8,14.8-1.8c1,0,2.1,0,3.2,0.1C244,340.5,246.9,340.9,249.7,341.4z" style="fill: #414042;"></path></svg> <svg y="348.7749996185303" viewBox="0.5699999928474426 12.710000038146973 108.61000061035156 41.15999984741211" x="233.19499969482422" height="41.15999984741211" width="108.61000061035156" style="overflow: visible;"><g fill="#414042" fill-opacity="1" style=""><path d="M22.43 14.43L28.54 14.43L18.04 43.05L11.07 43.05L0.57 14.43L6.72 14.43L14.60 37.19L22.43 14.43ZM53.09 31.20Q53.09 32.43 52.93 33.42L52.93 33.42L36.33 33.42Q36.53 35.88 38.05 37.27Q39.56 38.66 41.78 38.66L41.78 38.66Q44.98 38.66 46.33 35.92L46.33 35.92L52.52 35.92Q51.54 39.20 48.75 41.31Q45.96 43.42 41.90 43.42L41.90 43.42Q38.62 43.42 36.02 41.96Q33.41 40.51 31.96 37.84Q30.50 35.18 30.50 31.69L30.50 31.69Q30.50 28.17 31.94 25.50Q33.37 22.84 35.96 21.40Q38.54 19.97 41.90 19.97L41.90 19.97Q45.14 19.97 47.70 21.36Q50.27 22.76 51.68 25.32Q53.09 27.88 53.09 31.20L53.09 31.20ZM36.37 29.56L47.15 29.56Q47.11 27.35 45.55 26.01Q43.99 24.68 41.74 24.68L41.74 24.68Q39.61 24.68 38.15 25.97Q36.70 27.27 36.37 29.56L36.37 29.56ZM57.28 12.71L63.02 12.71L63.02 43.05L57.28 43.05L57.28 12.71ZM74.42 23.62Q75.52 22.06 77.47 21.01Q79.42 19.97 81.92 19.97L81.92 19.97Q84.83 19.97 87.19 21.40Q89.54 22.84 90.92 25.48Q92.29 28.13 92.29 31.61L92.29 31.61Q92.29 35.10 90.92 37.78Q89.54 40.47 87.19 41.94Q84.83 43.42 81.92 43.42L81.92 43.42Q79.42 43.42 77.51 42.39Q75.60 41.37 74.42 39.81L74.42 39.81L74.42 53.87L68.67 53.87L68.67 20.34L74.42 20.34L74.42 23.62ZM86.43 31.61Q86.43 29.56 85.59 28.06Q84.75 26.57 83.37 25.79Q82 25.01 80.40 25.01L80.40 25.01Q78.84 25.01 77.47 25.81Q76.10 26.61 75.26 28.13Q74.42 29.64 74.42 31.69L74.42 31.69Q74.42 33.74 75.26 35.26Q76.10 36.78 77.47 37.58Q78.84 38.38 80.40 38.38L80.40 38.38Q82 38.38 83.37 37.56Q84.75 36.74 85.59 35.22Q86.43 33.70 86.43 31.61L86.43 31.61ZM102.21 23.86Q103.32 22.06 105.10 21.03Q106.89 20.01 109.18 20.01L109.18 20.01L109.18 26.04L107.67 26.04Q104.96 26.04 103.59 27.31Q102.21 28.58 102.21 31.73L102.21 31.73L102.21 43.05L96.47 43.05L96.47 20.34L102.21 20.34L102.21 23.86Z" transform="translate(0, 0)"></path></g></svg></svg>